<svg width="225" height="35" viewBox="0 0 225 35" fill="none" xmlns="http://www.w3.org/2000/svg">
<path d="M12.4967 10.5726V22.7205C14.1409 21.834 15.2922 20.291 15.8511 18.5504L15.9828 18.6172C15.6205 22.9508 12.6609 27.2839 8.05701 27.2839C3.42022 27.2839 0 23.8367 0 18.3206C0 14.1845 2.69665 11.5903 6.14981 9.2588C5.64521 9.12676 5.12555 9.06054 4.60385 9.06181C2.23548 9.06181 0.854777 10.6705 0.854777 12.3126H0.656576C0.623635 12.0828 0.623635 11.853 0.623635 11.6232C0.623635 8.70123 2.1696 5.15497 5.91867 5.15497C8.31942 5.15497 10.1613 7.35462 12.9562 7.35462C14.0745 7.35462 15.4558 6.82933 16.0146 5.6146H16.1135C16.0805 7.74914 15.4239 9.94935 12.4967 10.5726ZM14.2721 23.016C12.6279 24.756 10.8525 26.2334 8.55056 26.2334C4.27556 26.2334 0.987097 22.8846 0.987097 18.0257C0.987097 15.1694 2.17072 13.6264 3.4861 11.8201H3.35434C2.53195 12.6409 0.361787 14.7092 0.361787 18.2221C0.361787 23.6069 3.74907 26.9228 8.18877 26.9228C11.2801 26.9228 13.3844 24.7894 14.3386 23.0493L14.2721 23.016ZM15.5875 7.09253C15.0287 8.14311 13.845 9.48917 11.4443 9.48917C9.04355 9.48917 6.84045 7.84764 4.89975 7.84764C3.12376 7.84764 1.9072 9.02954 1.44659 9.91597L1.48009 9.98163C2.10428 9.3584 3.05788 8.73406 4.60385 8.73406C7.16873 8.73406 8.81352 10.3105 11.4114 10.3105C14.1739 10.3105 15.4234 8.50425 15.6534 7.12592L15.5875 7.09253ZM6.44516 9.35785C4.76799 11.0984 3.22202 13.0026 3.22202 16.7125C3.22202 18.7474 3.91266 20.8491 5.45862 22.1624L6.41222 21.6693V12.8702L5.5245 13.3298L5.3598 13.0015L9.96421 10.5058C8.7147 10.2443 7.5964 9.6856 6.44516 9.35729V9.35785ZM12.1344 10.6382C11.9043 10.6705 11.6743 10.6705 11.4114 10.6705C10.9507 10.6705 10.5236 10.6382 10.096 10.5392V20.1263L5.78747 22.4589C6.67519 23.1156 7.76055 23.509 9.14181 23.509C10.2601 23.509 11.2466 23.2792 12.1344 22.8852V10.6382ZM7.39932 12.3132L6.77401 12.6737V21.4735L7.39932 21.1452V12.3132ZM26.3088 13.5602V24.9201C26.3088 28.0719 23.5133 30.2064 20.3896 30.8296L20.3237 30.6983C21.8697 29.9432 22.7579 28.4002 22.7579 26.7586V15.0047L20.9819 13.3966L20.2913 14.1511V23.3114L21.2779 24.1979V24.2641L18.6141 27.1532L15.5557 24.3626V24.2307L16.7393 22.9831V8.47142L20.2254 4.76267L20.2913 4.79494V13.5936L23.1527 10.5075L26.1452 13.2001L26.7035 12.6086L26.9671 12.839L26.3088 13.5602ZM17.1006 24.2963V24.2307L17.7912 23.5407V7.91385L17.1006 8.63557V23.2124L16.0481 24.2635V24.3286L18.613 26.6268L19.0731 26.1015L17.1006 24.2963ZM23.8098 14.4794L21.6726 12.6409L21.212 13.1334L23.1197 14.8417V26.6607C23.1197 27.4486 22.955 28.2689 22.6591 28.729L22.6926 28.7619C23.5145 28.1704 23.8104 27.2839 23.8104 26.1354L23.8098 14.4794ZM31.538 20.1597V21.8335L34.7276 24.3292L36.5695 22.3593L36.833 22.6214L32.558 27.1849L28.2166 23.7048L27.5594 24.3948L27.2959 24.1322L28.0524 23.3443V15.0375L34.2681 10.5069L37.5236 15.7598L31.538 20.1597ZM29.1037 23.0493V14.7092L28.4136 15.2023V23.3776L32.4916 26.6935L33.0181 26.1354L29.1037 23.0493ZM31.6038 12.9364L31.538 12.9698V19.7001L34.4646 17.5661L31.6038 12.9364ZM32.4586 12.2798L31.8668 12.7066L34.7611 17.3363L35.3529 16.9089L32.4586 12.2798ZM58.9601 27.1526L54.3886 23.2129L50.903 27.1526L46.1669 23.0811V16.6463H45.2462C44.4238 16.6463 43.9967 17.1721 43.7991 17.7953H43.7002C43.5954 17.3876 43.5403 16.9687 43.5361 16.5478C43.5361 15.6942 43.7667 13.4617 46.1669 13.4617V7.81481C46.1669 6.7314 44.8844 6.3046 44.8844 4.86005C44.8844 2.9887 46.6599 1.15019 49.9165 0L50.0483 0.0984919C48.8646 0.788492 48.2393 1.44511 48.2393 2.85682C48.2393 5.0242 50.3442 4.46552 50.3442 7.87991V9.19314L54.1921 5.15497L58.237 9.12803L62.052 5.15497L65.7346 8.76634V20.9142L58.9601 27.1526ZM47.2199 22.5563V15.6291H45.3774C44.4238 15.6291 43.9967 16.2523 43.9308 16.811L43.9632 16.8443C44.2926 16.4827 44.6215 16.2862 45.3774 16.2862H46.5281V22.918L50.8695 26.6613L51.3625 26.0698L47.2199 22.5563ZM47.2199 7.48594C47.2199 6.14044 46.0362 5.68026 46.0362 4.82722C46.0362 3.64476 46.4963 2.6604 47.2199 1.74114L47.154 1.70831C46.1674 2.46397 45.2468 3.6787 45.2468 4.86005C45.2468 6.04251 46.5292 6.60007 46.5292 7.65121V13.4622H47.2199V7.48594ZM54.1586 10.7696L51.6596 8.3401L50.3442 9.68615V21.3082L53.3367 23.8367L54.1586 22.9169V10.7696ZM55.211 22.4912V10.3105L52.4155 7.55272L51.8896 8.07801L54.5203 10.606V22.8524L58.9601 26.6935L59.4865 26.2005L55.211 22.4912ZM61.5908 10.3439L59.5195 8.37293L58.3359 9.58822V21.2765L61.5584 24.0994L61.5908 24.0671V10.3428V10.3439ZM62.6432 9.88369L60.2425 7.55272L59.7495 8.07801L61.9526 10.1792V23.9029L62.6432 23.2463V9.88314V9.88369ZM76.6172 27.1526L73.4929 24.3292L70.6975 27.1526L67.2772 24.1322L66.8166 24.6241L66.5537 24.362L67.1455 23.7382V14.9396L73.3282 10.4741L76.8802 13.2324L77.5055 12.5758L77.7685 12.8385L77.0449 13.5936V22.6882L78.788 24.2963L79.3468 23.7054L79.6098 23.9352L76.6172 27.1526ZM68.1979 23.5084V14.6441L67.5078 15.136V23.8367L70.6651 26.6607L71.191 26.1354L68.1984 23.509L68.1979 23.5084ZM73.4929 14.874L70.7963 12.7722L70.6975 12.8385V22.3922L72.9341 24.3286L73.4924 23.7711V14.8734L73.4929 14.874ZM74.5453 23.8039V14.3815L71.7499 12.1156L71.0927 12.5753L73.8547 14.7421V24.1327L76.6172 26.6279L77.1108 26.102L74.5453 23.8039ZM86.1867 16.4493H89.574V23.4761L84.3454 27.1532C83.6548 26.3652 82.6677 25.8071 81.4511 25.8071C80.4646 25.8071 79.6751 26.1354 78.6233 27.0218L78.4586 26.9562L82.9318 20.4557H80.1687V14.3481L85.6614 10.5398C86.3185 11.065 86.8115 11.36 87.6674 11.36C88.3251 11.36 89.2787 11.2286 90.0022 10.6382L90.134 10.7039L86.1867 16.4493ZM82.5041 24.8545C81.5499 24.8545 80.794 25.1828 80.1357 25.6424V25.7081C80.6622 25.4782 81.1881 25.4131 81.6817 25.4131C82.4377 25.4131 83.6218 25.7743 84.4113 26.6935L85.1678 26.1354C84.5425 25.4126 83.7865 24.8545 82.5041 24.8545ZM86.022 19.3384H84.1807L80.3328 24.8879L80.3658 24.9535C81.3194 24.2635 82.24 23.8044 83.3583 23.8044C84.3449 23.8044 85.3643 24.2641 85.9891 25.052L86.0226 25.0192L86.022 19.3384ZM81.2205 19.3384V14.0532L80.5305 14.5456V20.0612H83.1936L83.7201 19.3389H81.2211L81.2205 19.3384ZM88.0945 12.9036C87.4038 13.3966 87.0091 13.6587 85.8579 13.6587C85.2002 13.6587 84.4107 13.3637 83.7865 12.7066L83.7207 12.74V17.5327H84.9702L88.1274 12.9364L88.0939 12.903L88.0945 12.9036ZM86.5161 12.6081C85.9243 12.6081 85.1678 12.3132 84.6737 11.6565L83.8519 12.2141C84.4772 12.9692 85.069 13.2975 85.9891 13.2975C86.5809 13.2975 87.4362 13.1328 88.3245 12.3777L88.3569 12.2798C87.7986 12.5101 87.1079 12.6081 86.5161 12.6081ZM87.0744 18.2561H84.9372L84.4437 18.945H86.3844V25.3141L87.075 24.8216V18.2555L87.0744 18.2561ZM100.92 13.5602V24.9201C100.92 28.0719 98.1246 30.2064 95.0002 30.8296L94.9349 30.6983C96.4809 29.9432 97.3686 28.4002 97.3686 26.7586V15.0047L95.5932 13.3966L94.902 14.1511V23.3114L95.8885 24.1979V24.2641L93.2254 27.1532L90.1669 24.3626V24.2307L91.3506 22.9831V8.47142L94.8367 4.76211L94.902 4.79439V13.5936L97.7633 10.5075L100.756 13.2001L101.315 12.6086L101.578 12.839L100.919 13.5602H100.92ZM91.7118 24.2963V24.2307L92.4024 23.5407V7.91385L91.7118 8.63557V23.2124L90.6594 24.2635V24.3292L93.2243 26.6273L93.6843 26.1015L91.7118 24.2963ZM98.4205 14.4794L96.2827 12.6409L95.8226 13.1334L97.7298 14.8417V26.6607C97.7298 27.4486 97.5657 28.2689 97.2698 28.729L97.3033 28.7619C98.1251 28.1704 98.421 27.2839 98.421 26.1354L98.4205 14.4794ZM106.906 27.1526L104.077 24.559L103.419 25.2484L103.156 24.9852L103.913 24.165V14.677L102.531 13.3637L102.005 13.9547L101.742 13.692L104.701 10.4741L107.332 12.8385L107.99 12.1162L108.286 12.346L107.464 13.2324V22.8201L109.043 24.2969L109.766 23.5412L110.029 23.8044L106.906 27.1526ZM104.965 23.9352V14.1511L103.255 12.5753L102.795 13.1011L104.274 14.5128V24.2641L106.906 26.6273L107.399 26.102L104.965 23.9352ZM105.952 10.212L103.255 7.7497L105.722 5.12325L108.418 7.58499L105.952 10.2114V10.212ZM104.274 7.22385L103.781 7.71631L105.919 9.71898L106.412 9.16086L104.274 7.22385ZM120.811 27.1526L117.95 24.559V14.9724L116.207 13.3966L115.285 14.3815V23.2458L116.305 24.1973V24.3292L113.609 27.1526L110.55 24.362V24.2635L111.734 23.016V14.7421L110.189 13.3304L109.563 14.0198L109.301 13.7572L112.293 10.5069L115.286 13.1668V13.8234L118.41 10.5069L121.336 13.1334L121.995 12.4439L122.291 12.7066L121.501 13.5273V22.9169L122.981 24.2958L123.705 23.5079L123.967 23.7705L120.811 27.1526ZM112.129 24.2963V24.2307C112.129 24.2963 112.787 23.5741 112.787 23.5741V14.2491L110.912 12.5419L110.452 13.0343L112.096 14.5445V23.2118L111.076 24.263V24.3286L113.609 26.6268L114.135 26.0686L112.129 24.2963ZM119.002 24.0337V14.4143L116.963 12.5753L116.437 13.1334L118.311 14.8077V24.362L120.778 26.6602L121.304 26.1015L119.002 24.0337ZM130.085 33.0621C129 31.8802 128.243 31.3878 127.224 31.3878C126.139 31.3878 124.889 31.8151 123.607 32.504L123.508 32.4061L128.046 27.1532L124.823 24.5924L124.198 25.249L123.936 25.0192L124.658 24.2312V14.9402L130.907 10.4746L134.393 13.233L134.985 12.5764L135.248 12.839L134.558 13.5941V24.8233C134.558 26.5299 135.511 26.4648 135.511 27.7447C135.511 29.2215 133.373 30.5998 130.085 33.0621ZM125.711 23.968V14.677L125.021 15.1694V24.2641L128.276 26.8905L128.77 26.299L125.711 23.968ZM128.013 30.5342C126.928 30.5342 125.941 30.8625 125.021 31.4863V31.5525C125.613 31.3227 126.27 31.0272 127.388 31.0272C128.408 31.0272 129.263 31.5847 130.118 32.5702L130.776 32.0449C129.953 31.0934 128.967 30.5347 128.013 30.5347V30.5342ZM132.025 27.3824C131.203 26.8571 131.006 26.299 131.006 24.8873V24.2958L125.547 30.5993L125.58 30.6321C126.631 30.0089 127.586 29.5492 129.132 29.5492C130.447 29.5492 131.335 30.074 132.354 30.9281C132.979 30.4028 133.407 29.8776 133.407 29.0568C133.407 28.4002 132.847 27.9077 132.025 27.3824ZM131.006 14.8734L128.276 12.74L128.21 12.8056V22.8846L130.315 24.5262L131.006 23.7382V14.874V14.8734ZM133.012 26.9228C132.157 26.2662 132.058 25.7081 132.058 24.2963V14.3158L129.295 12.0833L128.671 12.5101L131.368 14.6436V24.756C131.368 26.1677 131.433 26.5622 132.321 27.1526C133.111 27.6779 133.735 28.236 133.735 28.9911C133.735 29.1876 133.702 29.5164 133.702 29.5164L133.735 29.5492C133.9 29.3845 134.097 29.1225 134.097 28.6951C134.097 27.9734 133.735 27.4809 133.012 26.9228ZM140.905 27.1526L137.879 24.7888L137.254 25.4782L136.991 25.215L137.715 24.4277V12.9369H135.807L135.741 12.8707L136.892 11.163H137.714V8.96388L141.2 5.25402L141.266 5.32023V11.1635H143.897L143.963 11.2297L142.812 12.9369H141.265V22.8852L143.075 24.2646L143.766 23.509L144.028 23.7716L140.905 27.1526ZM138.767 8.40576L138.076 9.16086V11.1641H138.767V8.40576ZM138.767 24.0994V12.9369H138.076V24.4933L140.872 26.6607L141.365 26.1354L138.767 24.0994ZM154.782 13.8885V23.0811L149.225 27.1854L145.047 24.0337L144.554 24.5918L144.291 24.3292L144.883 23.6726V14.677L150.705 10.5069L154.585 13.5279L155.209 12.8713L155.473 13.1334L154.782 13.8885ZM145.936 23.3443V14.3815L145.246 14.874V23.7054L149.192 26.7258L149.817 26.2667L145.936 23.3443ZM151.231 14.9724L148.468 12.8051L148.436 12.8385V22.6214L151.231 24.7226V14.9724ZM152.284 14.3815L149.225 12.0166L148.6 12.4768L151.593 14.7749V24.9858L152.284 24.4611V14.3815ZM167.345 27.1521L164.484 24.559V14.9724L162.741 13.3966L161.82 14.3815V23.2458L162.84 24.1973V24.3292L160.143 27.1526L157.085 24.362V24.2635L158.268 23.016V14.7421L156.723 13.3304L156.098 14.0198L155.835 13.7572L158.828 10.5069L161.82 13.1668V13.8234L164.945 10.5069L167.871 13.1334L168.529 12.4439L168.825 12.7066L168.035 13.5273V22.9169L169.515 24.2958L170.239 23.5079L170.501 23.7705L167.345 27.1521ZM158.663 24.2963V24.2307C158.663 24.2963 159.321 23.5741 159.321 23.5741V14.2491L157.446 12.5419L156.986 13.0343L158.631 14.5445V23.2118L157.611 24.263V24.3286L160.144 26.6268L160.67 26.0686L158.663 24.2963ZM165.536 24.0337V14.4143L163.498 12.5753L162.971 13.1334L164.846 14.8077V24.362L167.312 26.6602L167.838 26.1015L165.536 24.0337H165.536ZM187.662 27.1526C186.741 26.1677 186.412 25.8394 185.326 25.5439V31.9787L185.26 32.0115L183.945 30.8291L180.13 34.342L180.064 34.3097V25.4782C178.913 25.7409 177.696 26.3318 176.512 27.5132L176.446 27.4809C176.677 24.953 177.926 23.0816 180.064 22.3593V15.9568H179.373C178.419 15.9568 177.893 16.4493 177.433 17.3357H177.335C177.236 17.0408 177.169 16.5806 177.169 15.826C177.169 14.4466 178.189 13.0026 179.867 13.0026H180.064V9.45634L178.715 8.2416L178.058 8.89822L177.827 8.6684L181.149 5.15552L184.24 7.97896V10.9671L184.963 10.1786V6.40309H185.325V9.85031L189.698 5.15497L193.415 8.53708V22.819L187.662 27.1526ZM180.065 24.2635C178.717 24.5256 177.763 25.3469 177.139 26.4303L177.171 26.496C178.092 25.7081 178.946 25.3475 180.065 25.0843V24.2635ZM181.118 14.8411H179.309C178.059 14.8411 177.566 15.6291 177.533 16.5483L177.566 16.5811C177.96 15.9245 178.355 15.6947 179.144 15.5962H180.427V33.4895L181.118 32.8329V14.8411ZM181.118 8.93105L179.473 7.4214L178.947 7.97896L180.427 9.29219V13.002H181.118V8.93049V8.93105ZM184.966 10.8024L184.242 11.5575V30.5676L184.966 31.2242V10.8024ZM189.274 10.0473L187.333 8.27444L185.327 10.4418V21.9982C187.037 22.1629 188.221 22.6548 189.241 23.7711L189.274 23.7382V10.0473ZM185.327 24.2635V25.1171C186.445 25.3798 186.905 25.7081 187.694 26.6273L188.451 26.0364C187.662 25.0515 186.872 24.4611 185.327 24.2635ZM190.325 9.52256L188.089 7.45367L187.563 8.01179L189.635 9.91597V25.1828L190.325 24.6575V9.52256ZM204.894 13.889V23.0816L199.335 27.1854L195.159 24.0337L194.666 24.5918L194.403 24.3292L194.995 23.6726V14.677L200.816 10.5069L204.696 13.5279L205.321 12.8713L205.584 13.1334L204.894 13.889ZM196.048 23.3443V14.3815L195.357 14.874V23.7054L199.303 26.7258L199.928 26.2667L196.048 23.3443ZM201.342 14.9724L198.58 12.8051L198.547 12.8385V22.6214L201.342 24.7226V14.9724ZM202.395 14.3815L199.336 12.0166L198.712 12.4768L201.704 14.7749V24.9858L202.395 24.4611V14.3815ZM212.523 16.4493H215.911V23.4761L210.682 27.1532C209.991 26.3652 209.005 25.8071 207.788 25.8071C206.802 25.8071 206.013 26.1354 204.96 27.0218L204.796 26.9562L209.268 20.4557H206.505V14.3481L211.997 10.5398C212.656 11.065 213.148 11.36 214.003 11.36C214.662 11.36 215.615 11.2286 216.338 10.6382L216.47 10.7039L212.523 16.4493ZM208.84 24.8545C207.887 24.8545 207.13 25.1828 206.473 25.6424V25.7081C206.999 25.4782 207.525 25.4131 208.018 25.4131C208.775 25.4131 209.959 25.7743 210.747 26.6935L211.504 26.1354C210.88 25.4126 210.123 24.8545 208.84 24.8545ZM212.359 19.3384H210.518L206.671 24.8879L206.703 24.9535C207.657 24.2635 208.577 23.8044 209.696 23.8044C210.682 23.8044 211.702 24.2641 212.326 25.052L212.359 25.0192V19.3384ZM207.558 19.3384V14.0532L206.867 14.5456V20.0612H209.53L210.057 19.3389L207.558 19.3384ZM214.431 12.9036C213.74 13.3966 213.346 13.6587 212.195 13.6587C211.536 13.6587 210.747 13.3637 210.123 12.7066L210.057 12.74V17.5327H211.306L214.463 12.9364L214.431 12.903V12.9036ZM212.852 12.6081C212.26 12.6081 211.504 12.3132 211.011 11.6565L210.189 12.2141C210.814 12.9692 211.406 13.2975 212.327 13.2975C212.919 13.2975 213.773 13.1328 214.662 12.3777L214.694 12.2798C214.135 12.5101 213.445 12.6081 212.852 12.6081ZM213.412 18.2561H211.274L210.781 18.945H212.721V25.3141L213.412 24.8216V18.2561ZM221.37 27.1526L218.344 24.7888L217.72 25.4782L217.457 25.215L218.18 24.4277V12.9369H216.272L216.207 12.8707L217.357 11.163H218.18V8.96388L221.666 5.25402L221.732 5.32023V11.1635H224.362L224.428 11.2297L223.277 12.9369H221.732V22.8852L223.541 24.2646L224.231 23.509L224.494 23.7716L221.37 27.1526ZM219.232 8.40576L218.542 9.16086V11.1641H219.233V8.40576H219.232ZM219.232 24.0994V12.9369H218.542V24.4933L221.337 26.6607L221.83 26.1354L219.233 24.0994H219.232Z" fill="#111111"/>
</svg>
